<mxfile host="app.diagrams.net" modified="2020-12-13T16:25:49.013Z" agent="5.0 (Windows NT 10.0; Win64; x64) AppleWebKit/537.36 (KHTML, like Gecko) Chrome/87.0.4280.88 Safari/537.36 Edg/87.0.664.60" etag="5NzTx5RN9Hv-QGXS4Olh" version="14.0.1" type="github">
  <diagram id="J_gh80zbM0Q3rFP8zzP_" name="Page-1">
    <mxGraphModel dx="1038" dy="580" grid="1" gridSize="10" guides="1" tooltips="1" connect="1" arrows="1" fold="1" page="1" pageScale="1" pageWidth="827" pageHeight="1169" math="0" shadow="0">
      <root>
        <mxCell id="0" />
        <mxCell id="1" parent="0" />
        <mxCell id="gwI0Q3imOIm5VNo4pkVi-11" style="edgeStyle=orthogonalEdgeStyle;rounded=0;orthogonalLoop=1;jettySize=auto;html=1;exitX=0;exitY=0;exitDx=90;exitDy=32;exitPerimeter=0;entryX=0;entryY=0;entryDx=0;entryDy=32;entryPerimeter=0;dashed=1;" edge="1" parent="1" source="gwI0Q3imOIm5VNo4pkVi-1" target="gwI0Q3imOIm5VNo4pkVi-5">
          <mxGeometry relative="1" as="geometry" />
        </mxCell>
        <mxCell id="gwI0Q3imOIm5VNo4pkVi-13" style="edgeStyle=orthogonalEdgeStyle;rounded=0;orthogonalLoop=1;jettySize=auto;html=1;exitX=0.5;exitY=1;exitDx=0;exitDy=0;exitPerimeter=0;dashed=1;" edge="1" parent="1" source="gwI0Q3imOIm5VNo4pkVi-1" target="gwI0Q3imOIm5VNo4pkVi-3">
          <mxGeometry relative="1" as="geometry" />
        </mxCell>
        <mxCell id="gwI0Q3imOIm5VNo4pkVi-16" style="edgeStyle=orthogonalEdgeStyle;rounded=0;orthogonalLoop=1;jettySize=auto;html=1;exitX=0;exitY=0;exitDx=90;exitDy=50;exitPerimeter=0;entryX=0;entryY=0;entryDx=0;entryDy=23;entryPerimeter=0;dashed=1;" edge="1" parent="1" source="gwI0Q3imOIm5VNo4pkVi-1" target="gwI0Q3imOIm5VNo4pkVi-2">
          <mxGeometry relative="1" as="geometry">
            <Array as="points">
              <mxPoint x="580" y="310" />
              <mxPoint x="580" y="403" />
            </Array>
          </mxGeometry>
        </mxCell>
        <mxCell id="gwI0Q3imOIm5VNo4pkVi-23" style="edgeStyle=orthogonalEdgeStyle;rounded=0;orthogonalLoop=1;jettySize=auto;html=1;exitX=0;exitY=0;exitDx=0;exitDy=32;exitPerimeter=0;entryX=0;entryY=0;entryDx=70;entryDy=32;entryPerimeter=0;dashed=1;" edge="1" parent="1" source="gwI0Q3imOIm5VNo4pkVi-1" target="gwI0Q3imOIm5VNo4pkVi-21">
          <mxGeometry relative="1" as="geometry" />
        </mxCell>
        <mxCell id="gwI0Q3imOIm5VNo4pkVi-1" value="Controller" style="shape=folder;fontStyle=1;spacingTop=10;tabWidth=40;tabHeight=14;tabPosition=left;html=1;" vertex="1" parent="1">
          <mxGeometry x="460" y="260" width="90" height="50" as="geometry" />
        </mxCell>
        <mxCell id="gwI0Q3imOIm5VNo4pkVi-2" value="Spring" style="shape=folder;fontStyle=1;spacingTop=10;tabWidth=40;tabHeight=14;tabPosition=left;html=1;" vertex="1" parent="1">
          <mxGeometry x="630" y="380" width="70" height="50" as="geometry" />
        </mxCell>
        <mxCell id="gwI0Q3imOIm5VNo4pkVi-3" value="SpringMVC" style="shape=folder;fontStyle=1;spacingTop=10;tabWidth=40;tabHeight=14;tabPosition=left;html=1;" vertex="1" parent="1">
          <mxGeometry x="465" y="380" width="80" height="50" as="geometry" />
        </mxCell>
        <mxCell id="gwI0Q3imOIm5VNo4pkVi-12" style="edgeStyle=orthogonalEdgeStyle;rounded=0;orthogonalLoop=1;jettySize=auto;html=1;exitX=0.5;exitY=1;exitDx=0;exitDy=0;exitPerimeter=0;entryX=0.474;entryY=-0.028;entryDx=0;entryDy=0;entryPerimeter=0;dashed=1;" edge="1" parent="1" source="gwI0Q3imOIm5VNo4pkVi-4" target="gwI0Q3imOIm5VNo4pkVi-6">
          <mxGeometry relative="1" as="geometry" />
        </mxCell>
        <mxCell id="gwI0Q3imOIm5VNo4pkVi-18" style="edgeStyle=orthogonalEdgeStyle;rounded=0;orthogonalLoop=1;jettySize=auto;html=1;exitX=0;exitY=0;exitDx=0;exitDy=50;exitPerimeter=0;entryX=0;entryY=0;entryDx=70;entryDy=23;entryPerimeter=0;dashed=1;" edge="1" parent="1" source="gwI0Q3imOIm5VNo4pkVi-4" target="gwI0Q3imOIm5VNo4pkVi-2">
          <mxGeometry relative="1" as="geometry">
            <Array as="points">
              <mxPoint x="760" y="310" />
              <mxPoint x="760" y="403" />
            </Array>
          </mxGeometry>
        </mxCell>
        <mxCell id="gwI0Q3imOIm5VNo4pkVi-34" style="edgeStyle=orthogonalEdgeStyle;rounded=0;orthogonalLoop=1;jettySize=auto;html=1;exitX=0;exitY=0;exitDx=70;exitDy=32;exitPerimeter=0;entryX=0;entryY=0;entryDx=0;entryDy=32;entryPerimeter=0;dashed=1;" edge="1" parent="1" source="gwI0Q3imOIm5VNo4pkVi-4" target="gwI0Q3imOIm5VNo4pkVi-33">
          <mxGeometry relative="1" as="geometry" />
        </mxCell>
        <mxCell id="gwI0Q3imOIm5VNo4pkVi-4" value="Dao" style="shape=folder;fontStyle=1;spacingTop=10;tabWidth=40;tabHeight=14;tabPosition=left;html=1;" vertex="1" parent="1">
          <mxGeometry x="780" y="260" width="70" height="50" as="geometry" />
        </mxCell>
        <mxCell id="gwI0Q3imOIm5VNo4pkVi-10" style="edgeStyle=orthogonalEdgeStyle;rounded=0;orthogonalLoop=1;jettySize=auto;html=1;exitX=0;exitY=0;exitDx=70;exitDy=32;exitPerimeter=0;entryX=0;entryY=0;entryDx=0;entryDy=32;entryPerimeter=0;dashed=1;" edge="1" parent="1" source="gwI0Q3imOIm5VNo4pkVi-5" target="gwI0Q3imOIm5VNo4pkVi-4">
          <mxGeometry relative="1" as="geometry" />
        </mxCell>
        <mxCell id="gwI0Q3imOIm5VNo4pkVi-17" style="edgeStyle=orthogonalEdgeStyle;rounded=0;orthogonalLoop=1;jettySize=auto;html=1;exitX=0.5;exitY=1;exitDx=0;exitDy=0;exitPerimeter=0;dashed=1;" edge="1" parent="1" source="gwI0Q3imOIm5VNo4pkVi-5" target="gwI0Q3imOIm5VNo4pkVi-2">
          <mxGeometry relative="1" as="geometry" />
        </mxCell>
        <mxCell id="gwI0Q3imOIm5VNo4pkVi-5" value="Service" style="shape=folder;fontStyle=1;spacingTop=10;tabWidth=40;tabHeight=14;tabPosition=left;html=1;" vertex="1" parent="1">
          <mxGeometry x="630" y="260" width="70" height="50" as="geometry" />
        </mxCell>
        <mxCell id="gwI0Q3imOIm5VNo4pkVi-6" value="Mybatis" style="shape=folder;fontStyle=1;spacingTop=10;tabWidth=40;tabHeight=14;tabPosition=left;html=1;" vertex="1" parent="1">
          <mxGeometry x="780" y="380" width="70" height="50" as="geometry" />
        </mxCell>
        <mxCell id="gwI0Q3imOIm5VNo4pkVi-15" value="Web服务器" style="text;html=1;strokeColor=none;fillColor=none;align=center;verticalAlign=middle;whiteSpace=wrap;rounded=0;" vertex="1" parent="1">
          <mxGeometry x="630" y="210" width="80" height="20" as="geometry" />
        </mxCell>
        <mxCell id="gwI0Q3imOIm5VNo4pkVi-20" value="" style="rounded=0;whiteSpace=wrap;html=1;fillColor=none;" vertex="1" parent="1">
          <mxGeometry x="170" y="230" width="130" height="100" as="geometry" />
        </mxCell>
        <mxCell id="gwI0Q3imOIm5VNo4pkVi-22" style="edgeStyle=orthogonalEdgeStyle;rounded=0;orthogonalLoop=1;jettySize=auto;html=1;exitX=0;exitY=0;exitDx=70;exitDy=14;exitPerimeter=0;entryX=0.067;entryY=0.21;entryDx=0;entryDy=0;entryPerimeter=0;dashed=1;" edge="1" parent="1" source="gwI0Q3imOIm5VNo4pkVi-21">
          <mxGeometry relative="1" as="geometry">
            <mxPoint x="460.1500000000001" y="274.1" as="targetPoint" />
          </mxGeometry>
        </mxCell>
        <mxCell id="gwI0Q3imOIm5VNo4pkVi-27" style="edgeStyle=orthogonalEdgeStyle;rounded=0;orthogonalLoop=1;jettySize=auto;html=1;exitX=0.5;exitY=1;exitDx=0;exitDy=0;exitPerimeter=0;entryX=0;entryY=0;entryDx=40;entryDy=0;entryPerimeter=0;dashed=1;" edge="1" parent="1" source="gwI0Q3imOIm5VNo4pkVi-21" target="gwI0Q3imOIm5VNo4pkVi-26">
          <mxGeometry relative="1" as="geometry">
            <Array as="points">
              <mxPoint x="230" y="310" />
              <mxPoint x="230" y="345" />
              <mxPoint x="140" y="345" />
            </Array>
          </mxGeometry>
        </mxCell>
        <mxCell id="gwI0Q3imOIm5VNo4pkVi-31" style="edgeStyle=orthogonalEdgeStyle;rounded=0;orthogonalLoop=1;jettySize=auto;html=1;exitX=0.75;exitY=1;exitDx=0;exitDy=0;exitPerimeter=0;dashed=1;" edge="1" parent="1" source="gwI0Q3imOIm5VNo4pkVi-21" target="gwI0Q3imOIm5VNo4pkVi-30">
          <mxGeometry relative="1" as="geometry" />
        </mxCell>
        <mxCell id="gwI0Q3imOIm5VNo4pkVi-21" value="Jsp" style="shape=folder;fontStyle=1;spacingTop=10;tabWidth=40;tabHeight=14;tabPosition=left;html=1;fillColor=none;" vertex="1" parent="1">
          <mxGeometry x="210" y="260" width="70" height="50" as="geometry" />
        </mxCell>
        <mxCell id="gwI0Q3imOIm5VNo4pkVi-24" value="URL" style="text;html=1;strokeColor=none;fillColor=none;align=center;verticalAlign=middle;whiteSpace=wrap;rounded=0;" vertex="1" parent="1">
          <mxGeometry x="330" y="255" width="80" height="20" as="geometry" />
        </mxCell>
        <mxCell id="gwI0Q3imOIm5VNo4pkVi-25" value="Model，View" style="text;html=1;strokeColor=none;fillColor=none;align=center;verticalAlign=middle;whiteSpace=wrap;rounded=0;" vertex="1" parent="1">
          <mxGeometry x="330" y="290" width="80" height="20" as="geometry" />
        </mxCell>
        <mxCell id="gwI0Q3imOIm5VNo4pkVi-26" value="BootStrap" style="shape=folder;fontStyle=1;spacingTop=10;tabWidth=40;tabHeight=14;tabPosition=left;html=1;fillColor=none;" vertex="1" parent="1">
          <mxGeometry x="100" y="380" width="90" height="50" as="geometry" />
        </mxCell>
        <mxCell id="gwI0Q3imOIm5VNo4pkVi-28" value="浏览器" style="text;html=1;strokeColor=none;fillColor=none;align=center;verticalAlign=middle;whiteSpace=wrap;rounded=0;" vertex="1" parent="1">
          <mxGeometry x="160" y="235" width="80" height="20" as="geometry" />
        </mxCell>
        <mxCell id="gwI0Q3imOIm5VNo4pkVi-30" value="jQuery" style="shape=folder;fontStyle=1;spacingTop=10;tabWidth=40;tabHeight=14;tabPosition=left;html=1;fillColor=none;" vertex="1" parent="1">
          <mxGeometry x="260" y="380" width="90" height="50" as="geometry" />
        </mxCell>
        <mxCell id="gwI0Q3imOIm5VNo4pkVi-33" value="MySQL" style="shape=folder;fontStyle=1;spacingTop=10;tabWidth=40;tabHeight=14;tabPosition=left;html=1;" vertex="1" parent="1">
          <mxGeometry x="940" y="260" width="70" height="50" as="geometry" />
        </mxCell>
        <mxCell id="gwI0Q3imOIm5VNo4pkVi-35" value="数据库" style="text;html=1;strokeColor=none;fillColor=none;align=center;verticalAlign=middle;whiteSpace=wrap;rounded=0;" vertex="1" parent="1">
          <mxGeometry x="930" y="215" width="80" height="20" as="geometry" />
        </mxCell>
        <mxCell id="gwI0Q3imOIm5VNo4pkVi-36" value="" style="rounded=0;whiteSpace=wrap;html=1;fillColor=none;" vertex="1" parent="1">
          <mxGeometry x="440" y="200" width="420" height="280" as="geometry" />
        </mxCell>
        <mxCell id="gwI0Q3imOIm5VNo4pkVi-37" value="表现层" style="text;html=1;strokeColor=none;fillColor=none;align=center;verticalAlign=middle;whiteSpace=wrap;rounded=0;" vertex="1" parent="1">
          <mxGeometry x="485" y="450" width="40" height="20" as="geometry" />
        </mxCell>
        <mxCell id="gwI0Q3imOIm5VNo4pkVi-38" value="持久层" style="text;html=1;strokeColor=none;fillColor=none;align=center;verticalAlign=middle;whiteSpace=wrap;rounded=0;" vertex="1" parent="1">
          <mxGeometry x="795" y="450" width="40" height="20" as="geometry" />
        </mxCell>
        <mxCell id="gwI0Q3imOIm5VNo4pkVi-39" value="业务层" style="text;html=1;strokeColor=none;fillColor=none;align=center;verticalAlign=middle;whiteSpace=wrap;rounded=0;" vertex="1" parent="1">
          <mxGeometry x="650" y="450" width="40" height="20" as="geometry" />
        </mxCell>
      </root>
    </mxGraphModel>
  </diagram>
</mxfile>
